<svg xmlns="http://www.w3.org/2000/svg" viewBox="0 0 1500 900"><defs><style>.cls-1{fill:none;}.cls-2{fill:#ffd400;}</style></defs><title>info_active</title><g id="Layer_2" data-name="Layer 2"><g id="display_copy" data-name="display copy"><g id="info_active"><rect id="BG" class="cls-1" width="1500" height="900"/><path class="cls-2" d="M980.84,131v23.8h-4.42V134.66h-5V131Z"/><path class="cls-2" d="M1002.8,151v3.74H985.26v-3l9.45-9c2.31-2.21,2.72-3.61,2.72-4.93,0-2.18-1.5-3.44-4.42-3.44a6.73,6.73,0,0,0-5.58,2.48l-3.09-2.38c1.84-2.48,5.13-3.94,9-3.94,5.17,0,8.5,2.62,8.5,6.83,0,2.32-.64,4.42-3.94,7.52l-6.36,6Z"/><path class="cls-2" d="M966.88,762.85c0-7.82,4.29-12.24,9.93-12.24s10,4.42,10,12.24-4.28,12.24-10,12.24S966.88,770.67,966.88,762.85Zm15.44,0c0-5.75-2.25-8.4-5.51-8.4s-5.47,2.65-5.47,8.4,2.24,8.4,5.47,8.4S982.32,768.59,982.32,762.85Z"/><path class="cls-2" d="M1008.77,767.37c0,4.73-3.84,7.72-8.7,7.72-6.5,0-10.31-4.18-10.31-11.83,0-8.16,4.76-12.65,11.66-12.65a12,12,0,0,1,6.26,1.53l-1.63,3.33a8.09,8.09,0,0,0-4.52-1.15c-4.49,0-7.31,2.78-7.31,8.19v0a8.14,8.14,0,0,1,6.36-2.48C1005.27,760.06,1008.77,762.92,1008.77,767.37Zm-4.28.21c0-2.49-1.87-4.05-4.76-4.05s-4.83,1.73-4.83,4.08,1.77,4,4.93,4C1002.58,771.62,1004.49,770.06,1004.49,767.58Z"/><path class="cls-2" d="M1281.82,448.85c0-7.82,4.28-12.24,9.92-12.24s10,4.42,10,12.24-4.29,12.24-10,12.24S1281.82,456.67,1281.82,448.85Zm15.43,0c0-5.75-2.24-8.4-5.51-8.4s-5.47,2.65-5.47,8.4,2.24,8.4,5.47,8.4S1297.25,454.59,1297.25,448.85Z"/><path class="cls-2" d="M1321.26,453.61c0,4-3,7.48-9.42,7.48a14.9,14.9,0,0,1-8.94-2.76l1.9-3.43a11.08,11.08,0,0,0,7,2.35c3.16,0,5-1.4,5-3.61s-1.56-3.53-5.17-3.53h-2.17v-3l5.4-6.42h-10.81V437h16.22v3l-5.78,6.87C1319,447.35,1321.26,450,1321.26,453.61Z"/><path class="cls-2" d="M1122.15,178.85c0-7.82,4.28-12.24,9.93-12.24s10,4.42,10,12.24-4.29,12.24-10,12.24S1122.15,186.67,1122.15,178.85Zm15.43,0c0-5.75-2.24-8.4-5.5-8.4s-5.48,2.65-5.48,8.4,2.25,8.4,5.48,8.4S1137.58,184.59,1137.58,178.85Z"/><path class="cls-2" d="M1153.09,167v23.8h-4.42V170.66h-5V167Z"/><path class="cls-2" d="M1234.73,291.85c0-7.82,4.29-12.24,9.93-12.24s10,4.42,10,12.24-4.28,12.24-10,12.24S1234.73,299.67,1234.73,291.85Zm15.44,0c0-5.75-2.25-8.4-5.51-8.4s-5.47,2.65-5.47,8.4,2.24,8.4,5.47,8.4S1250.17,297.59,1250.17,291.85Z"/><path class="cls-2" d="M1274.68,300v3.74h-17.54v-3l9.45-9c2.31-2.21,2.72-3.61,2.72-4.93,0-2.18-1.5-3.44-4.42-3.44a6.73,6.73,0,0,0-5.58,2.48l-3.09-2.38c1.84-2.48,5.13-3.94,9-3.94,5.17,0,8.5,2.62,8.5,6.83,0,2.32-.64,4.42-3.94,7.52l-6.36,6.05Z"/><path class="cls-2" d="M1234,602.85c0-7.82,4.28-12.24,9.93-12.24s10,4.42,10,12.24-4.29,12.24-10,12.24S1234,610.67,1234,602.85Zm15.43,0c0-5.75-2.24-8.4-5.5-8.4s-5.48,2.65-5.48,8.4,2.25,8.4,5.48,8.4S1249.43,608.59,1249.43,602.85Z"/><path class="cls-2" d="M1278.09,609.34h-4.21v5.41h-4.28v-5.41h-13.06v-3.06L1268.27,591H1273l-11,14.65h7.78v-4.79h4.15v4.79h4.21Z"/><path class="cls-2" d="M1122.61,720.85c0-7.82,4.29-12.24,9.93-12.24s10,4.42,10,12.24-4.28,12.24-10,12.24S1122.61,728.67,1122.61,720.85Zm15.44,0c0-5.75-2.25-8.4-5.51-8.4s-5.47,2.65-5.47,8.4,2.24,8.4,5.47,8.4S1138.05,726.59,1138.05,720.85Z"/><path class="cls-2" d="M1162.8,725.44c0,4.18-3,7.65-9.42,7.65a14.86,14.86,0,0,1-8.94-2.76l1.87-3.43a11.25,11.25,0,0,0,7,2.35c3.17,0,5-1.4,5-3.64s-1.47-3.71-6.4-3.71h-5.74l1.22-12.95h14v3.71h-10.24l-.51,5.5h2.28C1160,718.16,1162.8,721.22,1162.8,725.44Z"/><path class="cls-2" d="M802.29,726.85c0-7.82,4.28-12.24,9.93-12.24s10,4.42,10,12.24-4.28,12.24-10,12.24S802.29,734.67,802.29,726.85Zm15.44,0c0-5.75-2.25-8.4-5.51-8.4s-5.48,2.65-5.48,8.4,2.25,8.4,5.48,8.4S817.73,732.59,817.73,726.85Z"/><path class="cls-2" d="M843,715v3l-9.24,20.84H829l8.94-20.06h-9.35v4h-4.11V715Z"/><path class="cls-2" d="M665.46,628.85c0-7.82,4.28-12.24,9.92-12.24s10,4.42,10,12.24-4.29,12.24-10,12.24S665.46,636.67,665.46,628.85Zm15.43,0c0-5.75-2.24-8.4-5.51-8.4s-5.47,2.65-5.47,8.4,2.25,8.4,5.47,8.4S680.89,634.59,680.89,628.85Z"/><path class="cls-2" d="M707.65,633.92c0,4.41-3.84,7.17-9.76,7.17s-9.69-2.76-9.69-7.17a6,6,0,0,1,3.81-5.68,5.45,5.45,0,0,1-3-5c0-4.08,3.57-6.63,8.84-6.63s8.91,2.55,8.91,6.63a5.44,5.44,0,0,1-3,5A6,6,0,0,1,707.65,633.92Zm-4.45-.14c0-2.35-2-3.81-5.31-3.81s-5.23,1.46-5.23,3.81,2,3.84,5.23,3.84S703.2,636.19,703.2,633.78Zm-9.79-10.34c0,2,1.69,3.34,4.48,3.34s4.56-1.3,4.56-3.34-1.84-3.36-4.56-3.36S693.41,621.3,693.41,623.44Z"/><path class="cls-2" d="M678.29,264v23.8h-4.42V267.66h-5V264Z"/><path class="cls-2" d="M683,275.85c0-7.82,4.28-12.24,9.93-12.24s10,4.42,10,12.24-4.29,12.24-10,12.24S683,283.67,683,275.85Zm15.43,0c0-5.75-2.24-8.4-5.5-8.4s-5.48,2.65-5.48,8.4,2.25,8.4,5.48,8.4S698.45,281.59,698.45,275.85Z"/><path class="cls-2" d="M828.25,167v23.8h-4.41V170.66h-5V167Z"/><path class="cls-2" d="M841.21,167v23.8h-4.42V170.66h-5V167Z"/><path class="cls-2" d="M480.88,448.85c0-7.82,4.29-12.24,9.93-12.24s10,4.42,10,12.24-4.28,12.24-10,12.24S480.88,456.67,480.88,448.85Zm15.44,0c0-5.75-2.25-8.4-5.51-8.4s-5.47,2.65-5.47,8.4,2.24,8.4,5.47,8.4S496.32,454.59,496.32,448.85Z"/><path class="cls-2" d="M522.09,448.44c0,8.16-4.76,12.65-11.66,12.65a12,12,0,0,1-6.26-1.53l1.63-3.33a8.13,8.13,0,0,0,4.53,1.15c4.48,0,7.3-2.79,7.3-8.19v0a8.12,8.12,0,0,1-6.35,2.48c-4.69,0-8.2-2.86-8.2-7.31,0-4.73,3.85-7.72,8.71-7.72C518.28,436.61,522.09,440.79,522.09,448.44ZM517,444.09c0-2.24-1.77-4-4.93-4-2.76,0-4.66,1.56-4.66,4s1.87,4.05,4.76,4.05S517,446.44,517,444.09Z"/><path class="cls-2" d="M190.25,450.11v10.64h-4v-2.21c-1,1.56-3,2.45-5.71,2.45-4.15,0-6.77-2.28-6.77-5.44s2-5.41,7.55-5.41H186v-.27c0-2.48-1.5-3.94-4.52-3.94a9,9,0,0,0-5.51,1.8l-1.66-3.1a12.78,12.78,0,0,1,7.68-2.24C187.23,442.39,190.25,444.87,190.25,450.11Zm-4.25,5V453h-4.38c-2.89,0-3.68,1.09-3.68,2.42,0,1.53,1.3,2.51,3.47,2.51A4.62,4.62,0,0,0,186,455.07Z"/><path class="cls-2" d="M226.05,450.34v10.41H221.8v-9.86c0-3.23-1.49-4.79-4.08-4.79-2.79,0-4.72,1.83-4.72,5.44v9.21h-4.25v-9.86c0-3.23-1.5-4.79-4.08-4.79-2.82,0-4.73,1.83-4.73,5.44v9.21h-4.25V442.59h4.05v2.32a7.5,7.5,0,0,1,5.95-2.52,6.81,6.81,0,0,1,6.12,3,8.47,8.47,0,0,1,6.8-3C223,442.39,226.05,444.87,226.05,450.34Z"/><path class="cls-2" d="M316,342.67c0,5.64-3.91,9.32-9.22,9.32a7.47,7.47,0,0,1-5.81-2.45v8.8h-4.25V333.59h4.05V336a7.47,7.47,0,0,1,6-2.58A8.83,8.83,0,0,1,316,342.67Zm-4.32,0c0-3.47-2.31-5.68-5.37-5.68a5.69,5.69,0,0,0,0,11.36C309.36,348.35,311.67,346.14,311.67,342.67Z"/><path class="cls-2" d="M350.39,341.34v10.41h-4.25v-9.86c0-3.23-1.49-4.79-4.08-4.79-2.78,0-4.72,1.83-4.72,5.44v9.21h-4.25v-9.86c0-3.23-1.5-4.79-4.08-4.79-2.82,0-4.73,1.83-4.73,5.44v9.21H320V333.59h4v2.32a7.5,7.5,0,0,1,5.95-2.52,6.81,6.81,0,0,1,6.12,3,8.47,8.47,0,0,1,6.8-3C347.33,333.39,350.39,335.87,350.39,341.34Z"/><path class="cls-2" d="M297.56,573v3.74H280v-3l9.45-9c2.31-2.21,2.72-3.61,2.72-4.93,0-2.18-1.5-3.44-4.42-3.44a6.73,6.73,0,0,0-5.58,2.48l-3.09-2.38c1.84-2.48,5.13-3.94,9-3.94,5.17,0,8.5,2.62,8.5,6.83,0,2.32-.64,4.42-3.94,7.52l-6.36,6Z"/><path class="cls-2" d="M320.82,571.34H316.6v5.41h-4.28v-5.41H299.26v-3.06L311,553h4.73L304.67,567.6h7.78v-4.79h4.15v4.79h4.22Z"/><path class="cls-2" d="M351.24,566.34v10.41H347v-9.86c0-3.23-1.59-4.79-4.31-4.79-3,0-5.07,1.83-5.07,5.47v9.18h-4.25V551.52h4.25v9.18a8.11,8.11,0,0,1,6.05-2.31C348,558.39,351.24,560.87,351.24,566.34Z"/><path class="cls-2" d="M367.16,558.39v4.05a5.34,5.34,0,0,0-1-.11c-3.23,0-5.27,1.91-5.27,5.61v8.81h-4.25V558.59h4.05v2.66C361.92,559.34,364.13,558.39,367.16,558.39Z"/></g></g></g></svg>